<svg width="30" height="30" viewBox="0 0 30 30" xmlns="http://www.w3.org/2000/svg"><title>90DCD20C-8CE3-4615-BE97-1AB9B1AC80DB</title><g fill="#FFF" fill-rule="evenodd"><path d="M25.39 19.918a5.472 5.472 0 0 1-5.472 5.472h-9.893a5.472 5.472 0 0 1-5.471-5.472v-9.891a5.472 5.472 0 0 1 5.471-5.473h9.893a5.472 5.472 0 0 1 5.471 5.473v9.891zM14.971 0C6.702 0 0 6.703 0 14.972c0 8.27 6.703 14.972 14.972 14.972 8.268 0 14.973-6.703 14.973-14.972C29.945 6.703 23.24 0 14.972 0z"/><path d="M14.913 14.67l-6.211-4.223 4.496 8.66c.028.048.069.09.101.136.018.024.034.047.054.07.044.06.08.122.132.178.043.046.095.081.142.124a.01.01 0 0 0 .003.003l.004.004a2.246 2.246 0 0 0 2.442.373c.02-.008.038-.018.057-.027a2.2 2.2 0 0 0 .309-.184l.091-.07c.05-.038.102-.069.148-.113.036-.033.062-.072.095-.107.015-.016.033-.027.048-.044l.05-.067c.063-.077.122-.155.174-.238l12.58-17.61L14.913 14.67z"/></g></svg>