<svg width="248" height="28" viewBox="0 0 248 28" fill="none" xmlns="http://www.w3.org/2000/svg">
<path d="M45.08 26.36C42.848 26.36 40.088 26.144 36.8 25.712V21.428C40.88 22.052 43.664 22.364 45.152 22.364C48.272 22.364 49.832 21.56 49.832 19.952V18.44C49.832 17.672 49.604 17.084 49.148 16.676C48.716 16.268 47.924 16.064 46.772 16.064H44.036C38.9 16.064 36.332 14.024 36.332 9.944V8.216C36.332 6.176 37.184 4.676 38.888 3.716C40.592 2.756 43.292 2.276 46.988 2.276C48.908 2.276 51.344 2.432 54.296 2.744V6.92C50.672 6.488 48.176 6.272 46.808 6.272C44.912 6.272 43.64 6.428 42.992 6.74C42.296 7.076 41.948 7.604 41.948 8.324V9.98C41.948 11.204 42.98 11.816 45.044 11.816H47.852C50.516 11.816 52.448 12.308 53.648 13.292C54.848 14.276 55.448 15.776 55.448 17.792V19.34C55.448 22.124 54.452 24.008 52.46 24.992C51.5 25.496 50.432 25.844 49.256 26.036C48.104 26.252 46.712 26.36 45.08 26.36Z" fill="#004670"/>
<path d="M57.12 8.576H62.484L65.724 21.212L69.18 8.576H74.328L77.928 21.212L81.024 8.576H86.136L80.448 26H75.12L71.664 14.228L68.28 26H62.952L57.12 8.576Z" fill="#004670"/>
<path d="M88.8816 2.276H94.1376V6.524H88.8816V2.276ZM88.8816 8.576H94.1376V26H88.8816V8.576Z" fill="#004670"/>
<path d="M107.61 26.36C106.722 26.36 105.978 26.324 105.378 26.252C104.778 26.18 104.178 26.036 103.578 25.82C102.906 25.604 102.354 25.304 101.922 24.92C101.514 24.536 101.178 24.008 100.914 23.336C100.626 22.64 100.482 21.836 100.482 20.924V11.816H96.9538V8.576H100.482V3.536H105.738V8.576H110.526V11.816H105.738V20.024C105.738 20.864 105.81 21.5 105.954 21.932C106.098 22.34 106.374 22.64 106.782 22.832C107.19 23 107.814 23.084 108.654 23.084C108.99 23.084 109.614 23.024 110.526 22.904V26.18C109.398 26.3 108.426 26.36 107.61 26.36Z" fill="#004670"/>
<path d="M122.054 26.36C121.142 26.36 120.422 26.336 119.894 26.288C119.366 26.264 118.718 26.204 117.95 26.108C117.182 26.012 116.546 25.844 116.042 25.604C115.562 25.364 115.058 25.004 114.53 24.524C113.546 23.708 113.054 22.316 113.054 20.348V14.552C113.054 12.968 113.414 11.648 114.134 10.592C114.398 10.208 114.782 9.86 115.286 9.548C115.814 9.212 116.342 8.948 116.87 8.756C117.302 8.612 117.878 8.492 118.598 8.396C119.318 8.3 119.954 8.24 120.506 8.216H122.414C123.758 8.216 125.522 8.432 127.706 8.864V12.32C125.234 11.744 123.338 11.456 122.018 11.456C119.594 11.456 118.382 12.272 118.382 13.904V20.312C118.382 22.16 119.714 23.084 122.378 23.084C123.674 23.084 125.534 22.82 127.958 22.292V25.748C125.774 26.156 123.806 26.36 122.054 26.36Z" fill="#004670"/>
<path d="M130.925 0.799998H136.181V10.7C136.517 9.044 138.353 8.216 141.689 8.216C143.921 8.216 145.481 8.624 146.369 9.44C147.281 10.232 147.737 11.492 147.737 13.22V26H142.481V13.832C142.481 13.16 142.409 12.668 142.265 12.356C142.145 12.02 141.893 11.792 141.509 11.672C141.125 11.528 140.513 11.456 139.673 11.456C138.641 11.456 137.885 11.516 137.405 11.636C136.925 11.756 136.601 11.984 136.433 12.32C136.265 12.632 136.181 13.136 136.181 13.832V26H130.925V0.799998Z" fill="#004670"/>
<path d="M161.155 26.36C158.947 26.36 157.195 26.132 155.899 25.676C154.627 25.22 153.715 24.524 153.163 23.588C152.611 22.628 152.335 21.368 152.335 19.808V0.799998H157.591V10.304C157.903 9.512 158.479 8.972 159.319 8.684C160.159 8.372 161.467 8.216 163.243 8.216C164.755 8.216 165.967 8.336 166.879 8.576C167.815 8.816 168.523 9.2 169.003 9.728C169.459 10.256 169.771 10.844 169.939 11.492C170.107 12.116 170.191 12.98 170.191 14.084V19.808C170.191 22.16 169.483 23.84 168.067 24.848C166.651 25.856 164.347 26.36 161.155 26.36ZM161.227 23.084C162.259 23.084 163.039 23.012 163.567 22.868C164.095 22.724 164.455 22.472 164.647 22.112C164.839 21.752 164.935 21.212 164.935 20.492V14.048C164.935 13.256 164.851 12.692 164.683 12.356C164.515 11.996 164.179 11.756 163.675 11.636C163.171 11.516 162.343 11.456 161.191 11.456C160.207 11.456 159.451 11.54 158.923 11.708C158.419 11.876 158.071 12.14 157.879 12.5C157.687 12.86 157.591 13.376 157.591 14.048V20.492C157.591 21.212 157.675 21.752 157.843 22.112C158.035 22.472 158.383 22.724 158.887 22.868C159.415 23.012 160.195 23.084 161.227 23.084Z" fill="#004670"/>
<path d="M182.66 26.36C181.58 26.36 180.692 26.324 179.996 26.252C179.3 26.18 178.556 26.036 177.764 25.82C176.9 25.58 176.204 25.244 175.676 24.812C175.148 24.356 174.704 23.72 174.344 22.904C173.984 22.112 173.804 21.152 173.804 20.024V14.876C173.804 13.724 173.984 12.716 174.344 11.852C174.704 10.988 175.172 10.316 175.748 9.836C176.252 9.428 176.912 9.092 177.728 8.828C178.568 8.54 179.384 8.36 180.176 8.288C181.088 8.24 181.916 8.216 182.66 8.216C183.764 8.216 184.64 8.252 185.288 8.324C185.96 8.372 186.692 8.516 187.484 8.756C188.348 9.02 189.044 9.38 189.572 9.836C190.124 10.292 190.592 10.94 190.976 11.78C191.336 12.644 191.516 13.676 191.516 14.876V20.024C191.516 21.104 191.336 22.052 190.976 22.868C190.64 23.684 190.196 24.32 189.644 24.776C189.164 25.184 188.504 25.52 187.664 25.784C186.848 26.024 186.044 26.18 185.252 26.252C184.532 26.324 183.668 26.36 182.66 26.36ZM182.66 23.084C183.644 23.084 184.388 23.012 184.892 22.868C185.396 22.7 185.744 22.448 185.936 22.112C186.152 21.776 186.26 21.284 186.26 20.636V14.048C186.26 13.088 186.008 12.416 185.504 12.032C185 11.648 184.052 11.456 182.66 11.456C181.268 11.456 180.32 11.648 179.816 12.032C179.312 12.416 179.06 13.088 179.06 14.048V20.636C179.06 21.284 179.156 21.776 179.348 22.112C179.564 22.448 179.924 22.7 180.428 22.868C180.932 23.012 181.676 23.084 182.66 23.084Z" fill="#004670"/>
<path d="M200.545 26.36C198.913 26.36 197.689 26.216 196.873 25.928C196.081 25.616 195.517 25.076 195.181 24.308C194.869 23.516 194.713 22.34 194.713 20.78C194.713 19.388 194.881 18.296 195.217 17.504C195.577 16.712 196.141 16.148 196.909 15.812C197.701 15.452 198.781 15.272 200.149 15.272H206.053V14.084C206.053 13.34 205.945 12.788 205.729 12.428C205.537 12.068 205.165 11.816 204.613 11.672C204.085 11.528 203.281 11.456 202.201 11.456C200.713 11.456 198.673 11.6 196.081 11.888V8.576C197.977 8.336 200.197 8.216 202.741 8.216C204.973 8.216 206.689 8.384 207.889 8.72C209.113 9.056 209.989 9.632 210.517 10.448C211.045 11.264 211.309 12.452 211.309 14.012V26H206.161V24.416C205.753 25.112 205.201 25.604 204.505 25.892C203.809 26.204 202.489 26.36 200.545 26.36ZM202.597 23.084C203.653 23.084 204.409 23.048 204.865 22.976C205.201 22.928 205.429 22.856 205.549 22.76C205.693 22.664 205.813 22.508 205.909 22.292C206.005 22.124 206.053 21.872 206.053 21.536V18.152H202.453C201.637 18.152 201.061 18.212 200.725 18.332C200.389 18.428 200.161 18.644 200.041 18.98C199.921 19.292 199.861 19.856 199.861 20.672C199.861 21.464 199.921 22.016 200.041 22.328C200.161 22.64 200.389 22.844 200.725 22.94C201.085 23.036 201.709 23.084 202.597 23.084Z" fill="#004670"/>
<path d="M215.933 8.576H220.937V11.636C220.937 11.084 221.165 10.544 221.621 10.016C222.077 9.488 222.653 9.056 223.349 8.72C224.069 8.384 224.777 8.216 225.473 8.216H227.345V12.572H225.545C224.057 12.572 222.953 12.8 222.233 13.256C221.537 13.712 221.189 14.468 221.189 15.524V26H215.933V8.576Z" fill="#004670"/>
<path d="M236.938 26.36C234.874 26.36 233.349 26.216 232.365 25.928C231.381 25.616 230.698 25.04 230.314 24.2C229.93 23.36 229.738 22.052 229.738 20.276V13.472C229.738 11.552 230.277 10.196 231.357 9.404C232.461 8.612 234.238 8.216 236.686 8.216C237.838 8.216 238.737 8.288 239.385 8.432C240.057 8.552 240.597 8.78 241.005 9.116C241.413 9.428 241.834 9.896 242.266 10.52V0.799998H247.521V26H242.445V24.02C242.013 24.716 241.618 25.208 241.258 25.496C240.922 25.76 240.442 25.964 239.818 26.108C239.17 26.276 238.21 26.36 236.938 26.36ZM238.27 23.084C239.446 23.084 240.309 23.024 240.861 22.904C241.413 22.784 241.785 22.568 241.977 22.256C242.169 21.92 242.266 21.428 242.266 20.78V13.76C242.266 13.16 242.157 12.704 241.941 12.392C241.749 12.056 241.389 11.816 240.861 11.672C240.357 11.528 239.589 11.456 238.557 11.456C237.453 11.456 236.662 11.528 236.182 11.672C235.702 11.792 235.378 12.02 235.21 12.356C235.066 12.668 234.993 13.196 234.993 13.94V20.6C234.993 21.272 235.066 21.788 235.21 22.148C235.378 22.484 235.69 22.724 236.146 22.868C236.602 23.012 237.31 23.084 238.27 23.084Z" fill="#004670"/>
<path d="M8.32709 3.50791C8.90633 4.08675 9.48754 4.66394 10.0641 5.24541C11.0809 6.27097 11.0829 7.46719 10.0701 8.48485C9.34355 9.21491 8.62132 9.94924 7.88064 10.6645C7.68492 10.8532 7.66944 11.0087 7.76861 11.2466C8.25493 12.4145 8.95806 13.4486 9.74915 14.4211C11.3392 16.3757 13.1376 18.1106 15.2822 19.4567C15.7415 19.745 16.2496 19.9549 16.728 20.2145C16.9741 20.3479 17.1428 20.3054 17.3398 20.1018C18.0644 19.353 18.8064 18.6206 19.5467 17.8869C20.5164 16.9263 21.7335 16.9243 22.7075 17.8889C23.8976 19.0677 25.0824 20.252 26.2623 21.4407C27.2521 22.4376 27.2442 23.6558 26.2488 24.66C25.5763 25.3387 24.8656 25.9827 24.2297 26.6937C23.3042 27.7285 22.1431 28.0635 20.8149 27.9904C18.8845 27.8843 17.1036 27.2438 15.3886 26.4103C11.5765 24.5579 8.31754 21.9905 5.59137 18.7458C3.57558 16.3468 1.9097 13.7359 0.814163 10.787C0.284351 9.36085 -0.0945576 7.90009 0.0207623 6.35498C0.0919311 5.40157 0.450082 4.59047 1.15287 3.92169C1.9074 3.20317 2.62633 2.44742 3.36965 1.71671C4.34295 0.75967 5.5604 0.761647 6.53601 1.71935C7.13831 2.31037 7.73039 2.91128 8.32709 3.50791Z" fill="#0EA5C7"/>
</svg>
